<?xml version="1.0" encoding="UTF-8" standalone="no"?>
<!-- Created with Inkscape (http://www.inkscape.org/) -->

<svg
   version="1.1"
   id="svg1"
   width="500"
   height="500"
   viewBox="0 0 500 500"
   xmlns="http://www.w3.org/2000/svg"
   xmlns:svg="http://www.w3.org/2000/svg">
  <defs
     id="defs1" />
  <g
     id="g1">
    <path
       style="fill:#000000"
       d="m 279.01668,478.7701 c -0.34837,-0.41977 -1.25694,-2.05851 -2.01903,-3.64166 -1.95102,-4.05297 -8.8965,-10.62844 -11.22652,-10.62844 -0.60171,0 -2.96552,1.40625 -5.2529,3.125 -5.9076,4.43899 -7.01823,5.11718 -7.01823,4.2856 0,-0.3748 2.02011,-2.6922 4.48914,-5.14979 5.66243,-5.6362 6.51086,-7.70691 6.51086,-15.89077 0,-2.98968 -0.23467,-5.87427 -0.5215,-6.41021 -0.28682,-0.53594 -1.44081,-1.55477 -2.56442,-2.26407 -1.89762,-1.19791 -2.19697,-1.24652 -4.20854,-0.68331 -2.95841,0.8283 -4.94543,0.35225 -10.61429,-2.54298 -4.16866,-2.12904 -5.67483,-2.60876 -10.84125,-3.45292 -7.39633,-1.20852 -14.15299,-3.47092 -29,-9.71037 -17.9968,-7.56315 -18.57154,-7.84924 -24.25,-12.07105 -7.59407,-5.64604 -10.22538,-6.52753 -20.75,-6.95135 -4.125,-0.16612 -11.38342,-0.65866 -16.12983,-1.09455 -4.7464,-0.43588 -8.96515,-0.66384 -9.375,-0.50657 -1.22565,0.47033 -0.84919,2.02445 0.87983,3.63216 0.89375,0.83105 3.94129,3.15369 6.7723,5.16142 3.31772,2.3529 6.86611,5.49878 9.98294,8.85055 7.22069,7.76493 9.47594,9.08023 20.46458,11.93519 2.69785,0.70094 8.16768,2.59161 12.15518,4.2015 9.92866,4.00853 13.30797,4.92995 20.26456,5.52544 10.71841,0.91751 11.86218,1.24976 9.5401,2.77124 -2.96188,1.9407 -12.70039,1.08069 -20.78645,-1.83564 -14.46172,-5.21579 -30.16919,-9.50826 -31.58706,-8.63197 -0.64799,0.40048 -0.52166,1.58209 0.34919,3.26612 0.42919,0.82996 0.71044,1.96625 0.625,2.52509 l -0.15534,1.01607 -1.29477,-1.0231 c -0.71212,-0.5627 -2.77658,-3.23477 -4.58768,-5.93794 -4.04897,-6.0433 -7.77371,-9.86317 -15.86755,-16.27282 -3.4375,-2.72221 -8.1625,-6.79397 -10.5,-9.04834 -5.73355,-5.52966 -8.11824,-7.37841 -12.25,-9.49692 -4.39466,-2.2533 -4.34598,-2.21141 -8.50666,-7.32071 -1.9035,-2.3375 -5.83071,-6.73915 -8.72713,-9.78145 -5.897423,-6.19446 -12.587688,-15.46817 -16.718592,-23.17449 -1.512741,-2.82206 -3.767798,-6.32185 -5.011239,-7.77732 -5.013266,-5.86809 -9.657698,-14.6508 -15.278316,-28.8916 -1.709445,-4.33117 -4.006111,-9.26428 -5.103702,-10.96246 C 58.705334,310.51035 57.862786,307.5 59.10956,307.5 c 1.181015,0 4.37847,2.56078 7.89044,6.31931 2.512901,2.68932 3.955818,4.9031 6.362075,9.76096 3.386898,6.83761 8.890782,14.75226 11.989697,17.24131 1.076155,0.86437 4.698683,2.93853 8.050061,4.60923 3.351378,1.67071 8.156477,4.60615 10.677997,6.5232 6.57331,4.99753 9.05589,5.82853 16.92017,5.66374 6.31194,-0.13227 8.5713,0.29302 6.69255,1.25977 -0.5184,0.26675 -2.42461,0.61654 -4.23603,0.77732 -3.56645,0.31654 -5.74903,1.08325 -6.16431,2.16545 -0.15752,0.41051 1.78422,2.75043 4.8475,5.84151 5.41933,5.46851 12.45154,10.56609 16.66756,12.08216 11.05423,3.97505 13.76361,5.75604 8.75655,5.75604 -3.08752,0 -8.81904,-1.86304 -14.43868,-4.69332 -6.37201,-3.2092 -14.70815,-9.28907 -17.05143,-12.43627 -2.99266,-4.01934 -4.53917,-5.14302 -15.57371,-11.3156 -2.0625,-1.15373 -5.159751,-3.01078 -6.882781,-4.12676 -4.954729,-3.20912 -5.638272,-2.01649 -2.477089,4.32195 3.589473,7.1972 6.505857,10.70045 18.7408,22.51199 13.07846,12.62585 14.62881,13.72738 23.45785,16.6669 8.04078,2.67708 12.40691,3.17579 26.16122,2.98819 10.87492,-0.14833 12.54597,-0.0639 14.88666,0.75198 2.24087,0.78109 4.37995,0.92872 14.25,0.98348 13.43545,0.0745 15.61943,-0.29247 23.42945,-3.93719 4.41375,-2.05978 5.3075,-2.29022 10.69806,-2.75838 4.13563,-0.35917 6.04005,-0.35275 6.41445,0.0216 0.96017,0.96017 -1.26224,2.49282 -4.44642,3.0664 -5.0129,0.90299 -8.17227,1.95136 -9.61008,3.1889 -0.75466,0.64955 -1.25021,1.30331 -1.10121,1.45279 0.5426,0.54434 6.24056,1.81329 8.14222,1.81329 2.48597,0 6.7678,-3.21982 12.79898,-9.62449 2.31666,-2.46012 5.08107,-5.02149 6.14312,-5.69194 2.89349,-1.82658 3.89068,-3.81085 3.8929,-7.74635 0.002,-3.47853 1.87414,-8.93722 3.06521,-8.93722 0.79318,0 0.23079,4.48087 -0.81661,6.50632 -0.44371,0.85804 -0.73699,2.16389 -0.65174,2.90188 0.12201,1.05618 0.45699,1.37637 1.57367,1.50422 1.18606,0.1358 1.92388,-0.36492 4.5,-3.05389 3.24009,-3.38202 7.86902,-6.06467 9.9538,-5.76864 0.91324,0.12968 0.31978,0.70631 -3.12246,3.03392 -4.89498,3.30994 -9.14766,6.63231 -11.12689,8.69278 -0.75728,0.78838 -2.18183,2.22091 -3.16565,3.18341 -0.98383,0.9625 -4.46177,4.45 -7.72876,7.75 l -5.93999,6 2.35564,0.34102 c 1.29561,0.18756 3.50691,0.22163 4.914,0.0757 1.4071,-0.14591 3.78837,-0.01 5.29171,0.30214 2.44268,0.5071 3.15431,0.4384 6.69165,-0.646 2.17706,-0.66739 5.41181,-1.48368 7.18833,-1.81398 7.94078,-1.47639 13.60642,-6.51101 16.24583,-14.43643 0.72947,-2.19039 2.18287,-5.18401 3.2298,-6.65249 2.90708,-4.07767 3.54433,-5.61795 3.54433,-8.56686 0,-3.37228 -1.0621,-6.44574 -4.94043,-14.29643 C 274.37681,353.65035 273,350.43513 273,349.91176 c 0,-1.39131 -1.68123,-4.49316 -5.5935,-10.31994 -3.90855,-5.82124 -4.29891,-6.59261 -3.33499,-6.58995 0.71938,0.002 4.51793,4.52886 6.33644,7.55139 3.57832,5.9475 6.87844,5.8011 9.9312,-0.44057 1.35402,-2.76844 1.3987,-3.11246 1.35713,-10.44909 -0.0283,-4.98743 -0.26526,-8.12303 -0.69181,-9.15282 -0.78953,-1.90608 0.0408,-3.29466 0.95203,-1.59206 0.74569,1.39334 2.62354,9.41261 2.51788,10.7525 -0.27649,3.5061 0.14104,3.55193 6.99622,0.76799 2.79097,-1.13343 5.20891,-1.92637 5.37319,-1.76208 0.63623,0.63623 -1.20416,1.96611 -6.39591,4.62176 l -5.39862,2.76146 -1.8525,3.69822 c -1.01887,2.03402 -2.71746,4.74494 -3.77463,6.02427 -2.36485,2.8618 -2.41396,4.05169 -0.35268,8.54555 0.8632,1.88189 2.5123,5.78411 3.66466,8.67161 1.69073,4.23649 2.3082,5.2813 3.19853,5.41213 2.19618,0.32273 14.45295,-5.52521 17.87175,-8.52695 2.41142,-2.11726 3.19561,-3.86596 3.19561,-7.12604 0,-2.88428 0.0161,-2.90564 2.61116,-3.47343 1.89803,-0.41528 3.13437,-1.9119 4.09049,-4.95163 1.51402,-4.81349 3.80259,-7.33324 3.79609,-4.17957 -0.003,1.66657 -4.23778,10.27662 -5.9207,12.03906 -0.81742,0.85603 -1.85489,2.45336 -2.30549,3.54961 -0.4506,1.09624 -1.29693,2.50161 -1.88072,3.12302 -1.31365,1.39832 -0.97436,1.83091 0.88238,1.12498 1.52574,-0.58009 15.15149,-1.73315 15.56727,-1.31737 0.60841,0.60841 -3.18594,1.89715 -6.96851,2.36685 -4.81702,0.59814 -13.73157,3.56792 -20.12197,6.7034 -6.41405,3.14708 -7.58631,3.97491 -8.68873,6.13585 -0.53849,1.05552 -2.45028,3.68869 -4.24842,5.85147 -1.79814,2.16278 -3.37683,4.51424 -3.5082,5.22547 -0.13137,0.71123 -0.63883,3.37173 -1.12768,5.91222 -0.65819,3.42049 -0.74292,4.76498 -0.32654,5.18136 0.58387,0.58387 3.76513,0.16246 15.89957,-2.10612 5.88956,-1.10109 17.30771,-4.47162 20.35508,-6.00865 1.0203,-0.51461 2.45174,-0.93566 3.18099,-0.93566 1.97728,0 13.88182,-6.3142 16.39171,-8.69421 1.53228,-1.45299 2.65485,-3.22868 3.82839,-6.05579 1.44987,-3.49281 1.68901,-4.6999 1.88601,-9.51988 0.15382,-3.76342 -0.0461,-7.26368 -0.62817,-11 -0.76163,-4.88867 -1.19552,-6.16262 -4.02028,-11.80389 -2.89938,-5.79029 -4.2795,-8.17143 -6.55637,-11.31175 -0.76632,-1.05693 -0.76409,-1.20095 0.0322,-2.08078 1.69102,-1.86857 0.86172,-3.47448 -3.71951,-7.2027 -4.61858,-3.7586 -5.23729,-4.49143 -4.7857,-5.66828 0.35394,-0.92233 0.37487,-0.90934 5.98347,3.71228 2.0858,1.71875 4.20971,3.125 4.7198,3.125 1.3093,0 2.32084,-1.28476 4.09871,-5.20577 0.85042,-1.87556 2.10157,-4.2493 2.78032,-5.27496 0.72874,-1.10121 1.43309,-3.17613 1.72004,-5.06706 0.81494,-5.37014 1.52657,-7.5183 2.42976,-7.33452 0.52281,0.10638 0.75917,0.59483 0.67645,1.39791 -0.0699,0.67892 -0.26965,2.8094 -0.44381,4.7344 -0.2573,2.84392 -0.6785,4.10303 -2.24698,6.717 -2.37065,3.95081 -4.63506,9.73545 -5.45784,13.94251 -0.75355,3.85312 -0.11744,7.36043 1.93184,10.65159 0.74962,1.2039 1.6351,2.80765 1.96772,3.5639 1.01306,2.30325 2.61322,1.82145 7.10952,-2.14062 4.58181,-4.03744 5.9621,-5.73986 7.48701,-9.23438 1.74039,-3.9883 3.10437,-10.48848 2.52219,-12.01973 -0.71959,-1.89266 -0.61326,-3.73027 0.21583,-3.73027 0.38959,0 0.79683,0.26548 0.90499,0.58996 0.45589,1.36768 1.89516,-0.21955 2.66706,-2.94126 1.08732,-3.83387 3.14276,-7.42556 3.84665,-6.72167 0.36874,0.36874 0.28146,1.1704 -0.2912,2.67476 -0.44976,1.18152 -1.2503,3.83571 -1.77898,5.89821 -0.52868,2.0625 -1.88275,5.6506 -3.00904,7.97355 -2.14728,4.42871 -2.62124,7.33779 -1.27938,7.85271 0.43023,0.16509 1.80559,-0.38958 3.125,-1.2603 2.92129,-1.92785 7.23729,-4.10191 7.54076,-3.79844 0.51996,0.51996 -1.79761,2.29288 -7.07557,5.41273 -6.16412,3.64366 -13.83492,10.52245 -16.80485,15.06975 -1.39053,2.12906 -1.58733,2.79675 -1.32636,4.5 1.17764,7.68582 1.74411,12.34113 1.7644,14.5 0.0284,3.02576 0.50509,3.89126 2.02045,3.66875 0.90442,-0.13281 1.79756,-1.42339 4.19346,-6.05956 4.24023,-8.20501 7.73349,-12.74551 17.58062,-22.85108 6.96503,-7.14782 8.70423,-9.22034 9.44846,-11.25924 0.50166,-1.37438 1.46509,-3.84887 2.14095,-5.49887 4.21432,-10.28867 5.12851,-15.49341 4.1567,-23.66528 -0.61477,-5.1696 -0.47074,-7.58472 0.45233,-7.58472 0.76305,0 1.51522,3.10859 1.51522,6.26211 0,1.71209 0.149,3.85787 0.3311,4.76841 0.29495,1.47473 0.46419,1.11298 1.5497,-3.3125 1.0877,-4.43439 1.24473,-6.37874 1.4619,-18.10159 0.22888,-12.35437 0.18143,-13.31682 -0.79969,-16.22209 -1.03253,-3.05749 -1.29499,-7.38261 -0.59943,-9.87825 0.32522,-1.16685 0.40138,-1.11163 1.40161,1.01626 0.58174,1.23759 1.31323,3.1991 1.62553,4.35891 0.99716,3.70318 2.09731,2.45032 3.28375,-3.73957 0.41131,-2.14593 0.97823,-6.37669 1.2598,-9.40169 0.28158,-3.025 0.84284,-7.4125 1.24724,-9.75 0.40441,-2.3375 0.73601,-5.6416 0.73689,-7.34245 0.002,-3.3631 0.70555,-5.89953 1.50066,-5.40813 0.70626,0.43649 0.62261,6.09884 -0.24115,16.32464 -0.78696,9.31654 -1.30541,12.30237 -3.83093,22.063 -1.53826,5.94507 -1.58669,6.46307 -1.76333,18.86294 -0.0999,7.0125 -0.0608,13.25625 0.0869,13.875 0.72858,3.05246 3.30272,-0.15881 7.52603,-9.3888 3.81071,-8.32826 6.09525,-14.06807 7.25832,-18.2362 1.02992,-3.69096 3.63619,-23.18624 3.33694,-24.96078 -0.34407,-2.04029 -1.91655,4.42381 -2.36229,9.71078 -0.6602,7.83086 -1.67647,11.76863 -5.59415,21.6758 -1.07132,2.70919 -2.59259,7.15024 -3.3806,9.86902 -0.78801,2.71877 -1.99488,5.90243 -2.68194,7.07481 -1.35006,2.3037 -3.19044,4.20944 -3.63539,3.76449 -0.33478,-0.33478 0.99442,-7.58515 2.08192,-11.35618 0.43175,-1.49713 2.01505,-5.96775 3.51844,-9.93469 5.55265,-14.65154 6.56637,-21.44857 4.71188,-31.59325 -0.57812,-3.1625 -1.37534,-9.125 -1.7716,-13.25 -0.70647,-7.3543 -0.7657,-7.58742 -3.04875,-12 -2.44744,-4.7303 -8.98474,-14.76074 -12.38317,-19 -4.31409,-5.38145 -6.53775,-7.31659 -10.99948,-9.57229 -5.28989,-2.67439 -7.67868,-3.03711 -13.32669,-2.02359 -6.92725,1.24307 -9.13888,1.4751 -8.79766,0.92299 0.17002,-0.27509 0.98155,-0.64786 1.80339,-0.82837 0.82185,-0.18051 1.49427,-0.49742 1.49427,-0.70426 0,-0.20684 -1.125,-1.10504 -2.5,-1.99601 -1.375,-0.89097 -2.5,-1.85474 -2.5,-2.14171 0,-0.28697 0.61875,-0.11337 1.375,0.38579 2.28186,1.50612 5.01232,2.70745 6.15367,2.70745 0.59234,0 2.45946,-0.3601 4.14916,-0.80022 4.04676,-1.05407 7.21778,-0.65038 11.86966,1.51108 2.59692,1.20665 3.74615,1.53074 3.84865,1.08534 0.0804,-0.34926 -0.73133,-2.19003 -1.80379,-4.09061 -1.07247,-1.90057 -2.77918,-4.97199 -3.7927,-6.82537 -2.12974,-3.89458 -6.26356,-8.54827 -9.96969,-11.22348 -1.41898,-1.02427 -4.49246,-3.65611 -6.82996,-5.84854 -3.41716,-3.20508 -5.22981,-4.45189 -9.25,-6.36247 -8.92593,-4.24201 -10.93003,-4.71649 -19.24046,-4.55527 -8.16692,0.15842 -8.65705,-0.30106 -1.85634,-1.74026 l 4.40319,-0.93183 -6.01891,-6.09822 c -4.7819,-4.84492 -6.73977,-6.46124 -9.52641,-7.86458 -3.63163,-1.82886 -8.56185,-3.23533 -11.38607,-3.24818 -0.89375,-0.004 -1.625,-0.23239 -1.625,-0.50739 0,-0.70721 4.73133,-0.60648 8.03415,0.17105 1.53129,0.36049 4.1009,1.36861 5.71025,2.24027 1.60936,0.87167 3.02,1.49095 3.13475,1.37619 0.11476,-0.11476 -0.82559,-2.19514 -2.08968,-4.62308 -1.58182,-3.0382 -3.3881,-5.53917 -5.7939,-8.02218 C 309.573,113.15799 308,111.39892 308,111.2332 c 0,-0.52917 2.87466,1.72352 4.82258,3.77917 1.03591,1.0932 2.06211,1.98763 2.28045,1.98763 0.21833,0 0.39697,-1.0575 0.39697,-2.35 0,-3.18699 0.85845,-2.24201 1.7297,1.90405 0.36938,1.75777 1.93051,5.82138 3.46919,9.03023 2.49671,5.20679 3.23052,6.25543 6.82287,9.75 4.45524,4.33398 6.33679,5.48241 12.22824,7.46361 2.2,0.73983 5.10775,1.87396 6.46167,2.52029 1.35391,0.64634 2.54122,1.0956 2.63846,0.99836 0.32303,-0.32304 -4.83948,-8.71558 -7.90182,-12.84576 -1.65929,-2.23788 -2.92118,-4.16457 -2.80421,-4.28154 0.11696,-0.11697 1.75732,1.42385 3.64524,3.42404 1.88792,2.0002 3.7673,3.63734 4.1764,3.6381 0.42247,7.8e-4 0.87979,0.64884 1.05851,1.5 0.61969,2.95113 5.74872,9.88933 11.42286,15.45207 3.05946,2.99939 5.69465,5.32145 5.85597,5.16013 0.16132,-0.16132 -0.37259,-1.26537 -1.18646,-2.45344 -2.4085,-3.51587 -3.41506,-5.82159 -6.61103,-15.14383 -1.66946,-4.86962 -3.68253,-10.12792 -4.47347,-11.68509 -0.84989,-1.67324 -3.63023,-5.18299 -6.79781,-8.58122 -7.29481,-7.82597 -8.16518,-8.96403 -11.47167,-15 -3.49889,-6.387167 -7.29237,-11.625217 -8.97413,-12.391475 -0.68653,-0.312804 -3.22605,-0.931386 -5.64337,-1.374627 C 313.64679,90.725722 311,89.968495 311,89.403635 c 0,-0.242998 1.16894,-0.270255 2.625,-0.06121 3.67368,0.527424 5.83782,0.49381 5.95038,-0.09243 0.12697,-0.661267 -4.63096,-3.511874 -7.90833,-4.738092 -4.41568,-1.652119 -16.96593,-4.072848 -30.00659,-5.787761 -2.60206,-0.342184 -11.11661,1.847561 -13.71045,3.526009 C 265.98405,83.522309 261.5,88.51298 261.5,89.428907 261.5,89.743008 261.28057,90 261.01238,90 c -0.92054,0 2.11748,-5.903205 3.46736,-6.737479 C 265.63177,82.550529 264.87751,82 262.75,82 c -3.21398,0 -2.78286,-0.801208 0.625,-1.161499 1.58125,-0.167175 4.5625,-0.844977 6.625,-1.506227 l 3.75,-1.202273 -2,-0.348698 c -4.41227,-0.769275 -5.13991,-0.939529 -8.75,-2.047345 -2.0625,-0.632912 -5.2125,-1.307757 -7,-1.499655 -1.7875,-0.191899 -3.7,-0.600811 -4.25,-0.908694 -0.89762,-0.502479 -0.80179,-0.586191 0.93608,-0.817698 L 254.62216,72.25 251.31108,70.14484 C 249.48999,68.987002 248,67.811321 248,67.532216 c 0,-0.694525 2.17022,0.160929 5,1.970888 5.99581,3.834993 14.29567,6.264552 23.0607,6.750394 7.29367,0.404286 19.07612,2.015041 24.12239,3.297724 5.58514,1.419658 6.22467,0.976743 1.83038,-1.267666 -5.11968,-2.614911 -11.18657,-4.903785 -19.24015,-7.258787 -7.87187,-2.301868 -9.41558,-2.987417 -6.77332,-3.007978 3.54002,-0.02755 16.74815,3.890004 24.125,7.155506 1.58125,0.699971 2.875,1.151039 2.875,1.002374 0,-0.423591 -1.92358,-3.11341 -4.90456,-6.858258 -3.2392,-4.069235 -4.51515,-4.727089 -13.1686,-6.789486 -8.7328,-2.081309 -12.75843,-2.517509 -29.17684,-3.16148 -32.73165,-1.283818 -47.74298,-0.12143 -60.25,4.665402 -2.0625,0.789383 -5.1,1.757622 -6.75,2.151641 -1.65,0.394018 -5.54523,1.325171 -8.65606,2.069228 -3.11083,0.744056 -5.77639,1.232503 -5.92345,1.085437 -0.45656,-0.456559 3.48216,-2.220858 6.8595,-3.072627 5.07787,-1.280645 10.92804,-3.292111 11.2932,-3.882946 0.23432,-0.379142 -0.99162,-0.451026 -4.1198,-0.241565 -3.93378,0.263402 -21.27764,4.184978 -29.20339,6.603103 -5.62472,1.716087 -7.12034,1.358922 -3.03565,-0.724934 2.4623,-1.256169 20.82736,-6.403993 25.03565,-7.017626 1.7875,-0.260645 4.9375,-0.726266 7,-1.034714 2.0625,-0.308448 6.93126,-0.735721 10.81946,-0.949496 3.8882,-0.213775 7.33158,-0.550681 7.65195,-0.74868 0.80308,-0.496329 13.03319,-1.754614 17.12408,-1.761796 3.4952,-0.0061 4.63046,-0.582173 2.93531,-1.489389 -1.82166,-0.974923 -13.64954,-2.481769 -23.5308,-2.997774 -27.07579,-1.41391 -41.8871,0.05279 -55.53829,5.499719 -2.86644,1.143731 -8.01952,3.098765 -11.4513,4.34452 -3.43177,1.245755 -8.32883,3.361218 -10.88235,4.701029 C 122.57454,67.903791 120.16439,69 119.77216,69 c -3.49756,0 3.42266,-3.766593 17.47784,-9.512979 11.98215,-4.898836 12.37605,-5.112263 8.67286,-4.699146 -3.09686,0.345478 -4.97077,-0.216977 -3.82945,-1.149416 C 143.54148,52.455408 148.32089,51.5 152.79102,51.5 c 2.53524,0 7.72565,-0.503803 11.53425,-1.119563 6.24836,-1.01021 8.65845,-1.118591 24.67473,-1.109614 22.72333,0.01274 29.72318,0.646791 43.72978,3.961093 4.35333,1.030105 8.10487,1.447255 18.25,2.029302 7.02362,0.402959 15.11555,0.957447 17.98208,1.232196 2.86652,0.274748 5.28265,0.428746 5.36918,0.342217 0.0865,-0.08653 -1.19006,-0.801315 -2.83686,-1.588412 -3.24831,-1.55255 -4.18247,-2.769399 -1.11918,-1.457864 5.6649,2.425409 9.1574,3.710645 10.08329,3.710645 3.26663,0 -1.13966,-2.231899 -11.2681,-5.707593 -3.54211,-1.215513 -9.38012,-3.458158 -12.97338,-4.983656 C 248.21718,43.41255 245.24561,42.602046 238.5,41.976453 208.00908,39.1487 203.89933,38.990445 193.769,40.253994 c -9.71399,1.21162 -11.79056,0.847168 -5.769,-1.012501 3.63501,-1.122619 18.99896,-1.545873 29.5,-0.81268 20.7403,1.448108 24.58417,1.653452 24.90428,1.33042 C 242.59443,39.567355 242.13125,38.91583 241.375,38.3114 240.61875,37.706969 240,37.036975 240,36.822524 c 0,-0.666773 2.00525,0.135853 9.25,3.702425 3.85,1.895345 11.5,5.114816 17,7.154379 5.5,2.039563 11.35,4.315964 13,5.058668 1.65,0.742704 3.55912,1.570023 4.2425,1.838485 l 1.2425,0.488114 -1.20281,-1.280326 c -2.2141,-2.356809 -0.75992,-1.7886 2.91167,1.137705 2.79964,2.231353 5.03395,3.449939 9.72067,5.301624 7.46096,2.947767 9.13624,3.782538 13.58547,6.769477 1.925,1.292327 5.69539,3.728683 8.37864,5.414126 l 4.87864,3.064441 -0.30403,-2.110821 c -0.52545,-3.64804 -3.44855,-11.611821 -5.74551,-15.65326 -1.21426,-2.136455 -3.27046,-4.952919 -4.56935,-6.25881 -1.39701,-1.404546 -2.11179,-2.460038 -1.75,-2.584143 0.3989,-0.136832 -0.0649,-1.19775 -1.33343,-3.050493 -1.06978,-1.562383 -1.80014,-2.985603 -1.62303,-3.162711 0.47263,-0.47263 2.70866,1.737604 4.65227,4.598596 0.93411,1.375 2.93413,4.261307 4.4445,6.414016 l 2.74612,3.914016 0.55424,-1.589898 c 0.30483,-0.874444 1.08675,-2.591407 1.73759,-3.815473 0.68129,-1.28133 1.19292,-3.115925 1.2059,-4.324118 0.0124,-1.154199 0.33163,-2.773543 0.70939,-3.598543 l 0.68684,-1.5 0.0406,1.851473 c 0.0223,1.018311 0.28904,2.396718 0.59268,3.063128 0.43926,0.964082 0.38086,1.47294 -0.28582,2.49042 -1.25076,1.9089 -2.75851,7.288397 -2.75933,9.844979 -4e-4,1.2375 0.64612,4.5 1.4367,7.25 0.79058,2.75 1.59034,6.127001 1.77724,7.504448 0.31748,2.33981 0.52399,2.633148 3.14138,4.462225 4.40403,3.077601 12.3889,9.925213 18.33373,15.722508 l 5.44598,5.310819 -2.88734,-5.5 c -1.58804,-3.025 -3.30748,-6.097233 -3.82098,-6.827185 -0.5135,-0.729952 -0.93857,-1.742452 -0.94461,-2.25 -0.006,-0.507548 -0.45604,-1.903636 -1,-3.102417 C 342.94506,81.371617 342.5,80.027867 342.5,79.584287 c 0,-1.54174 1.83712,0.996675 3.38131,4.672089 0.81025,1.928507 2.47752,5.078507 3.70505,7 1.22753,1.921493 2.76266,4.562374 3.41139,5.868624 0.64873,1.30625 1.34485,2.375 1.54693,2.375 0.44927,0 0.98784,-3.038687 1.3978,-7.886522 0.16914,-2.000088 0.53252,-3.687588 0.80752,-3.75 1.13009,-0.256481 1.43071,4.534509 0.58249,9.283296 -1.21157,6.783086 -1.21567,6.762466 1.96064,9.870306 5.99136,5.86222 14.67707,16.95645 22.88656,29.23292 1.83898,2.75 3.8061,5.5625 4.37139,6.25 l 1.0278,1.25 -0.27889,-2 c -0.4149,-2.9754 -6.06685,-16.54104 -8.37392,-20.09886 -1.10521,-1.70437 -1.93445,-3.48135 -1.84277,-3.94885 0.3053,-1.55673 3.14455,1.48879 5.36262,5.75221 1.8678,3.59014 4.39284,6.5455 5.59244,6.5455 0.75873,0 0.54653,-0.51241 -1.24466,-3.00562 -0.93847,-1.30628 -2.77172,-4.25815 -4.07388,-6.55972 -1.30216,-2.30156 -3.25449,-5.49575 -4.33849,-7.09819 -1.08401,-1.60245 -1.85775,-3.02672 -1.71941,-3.16505 0.44424,-0.44425 4.219,4.72702 8.39094,11.49525 6.99129,11.3421 8.03457,12.83108 11.20916,15.99791 1.70115,1.69698 4.58812,4.70776 6.41549,6.69063 1.82737,1.98286 3.31967,3.44536 3.31621,3.25 -0.0405,-2.2939 -2.6852,-15.29187 -3.73471,-18.35521 -2.18235,-6.3699 -6.79342,-16.12559 -10.98572,-23.24258 -2.13004,-3.61602 -3.75772,-6.689659 -3.61707,-6.830307 0.34426,-0.344255 1.78314,1.654627 5.23255,7.268997 1.58606,2.58151 3.10368,4.60596 3.37249,4.49877 0.28765,-0.1147 0.41479,-2.09784 0.309,-4.81988 -0.1229,-3.16226 -0.004,-4.625 0.375,-4.625 0.33751,0 0.55474,1.05227 0.55474,2.68714 0,1.47792 0.3375,3.64371 0.75,4.81286 0.4125,1.16915 0.75,2.85052 0.75,3.73639 0,0.88586 1.03858,4.28882 2.30796,7.56213 4.296,11.07798 4.65015,12.12895 5.23746,15.5427 0.32255,1.87483 1.53757,5.54628 2.70005,8.15878 1.16247,2.6125 2.5915,6.04205 3.17562,7.62122 0.58413,1.57917 2.61514,6.02814 4.51336,9.8866 2.93586,5.96762 3.49861,6.82696 3.76796,5.75378 0.17415,-0.69388 0.52678,-1.2616 0.78361,-1.2616 0.48016,0 1.46146,2.97138 1.56869,4.75 0.12547,2.08123 0.9037,-3.15205 0.9666,-6.5 0.0732,-3.89795 0.32902,-5.25 0.99325,-5.25 0.25606,0 0.40193,7.10541 0.34131,16.625 -0.0903,14.17649 0.0227,17.23907 0.76708,20.79443 0.48012,2.29319 0.99965,4.37444 1.15451,4.625 0.62861,1.01712 1.58293,0.30166 3.56065,-2.66943 C 434.42338,192.98889 437,183.10584 437,174.74006 c 0,-3.60065 0.11019,-4.12006 0.86119,-4.0595 0.70655,0.057 0.97944,-0.69274 1.51975,-4.17531 0.36221,-2.33461 0.85191,-4.4381 1.08823,-4.67442 0.74159,-0.74159 1.12359,2.5104 0.52995,4.51144 -0.31128,1.04925 -0.76256,4.49523 -1.00283,7.65773 -0.7899,10.39667 -3.16578,19.12524 -7.52701,27.65292 -1.3791,2.69661 -3.26746,7.00248 -4.19636,9.5686 -2.03351,5.61765 -2.53632,6.61448 -6.57174,13.02848 l -3.14579,5 -1.0585,7.71706 c -1.39183,10.14721 -4.58581,26.20196 -6.27246,31.52894 -2.20067,6.95044 -6.2325,15.62527 -12.31833,26.504 -8.24345,14.73557 -11.54219,21.03058 -11.19991,21.37285 1.039,1.039 8.55953,-9.88604 13.16371,-19.12285 2.727,-5.47085 6.08783,-13.5803 6.6291,-15.99553 0.63322,-2.82555 1.33265,-4.25447 2.0825,-4.25447 0.89295,0 0.15771,3.12521 -3.10663,13.20496 -3.17209,9.79489 -3.60404,12.08128 -2.42731,12.84798 0.97827,0.63739 3.85565,0.095 8.51287,-1.60467 4.20489,-1.53459 5.43957,-1.75245 5.43957,-0.9598 0,0.76523 -2.30602,2.087 -5.65001,3.2385 -2.41891,0.83295 -3.12501,1.31384 -3.36061,2.28877 -0.24216,1.00204 -0.57495,1.21327 -1.76883,1.12271 -6.01257,-0.45607 -7.26297,0.10075 -10.97055,4.88534 -1.375,1.77441 -4.75,5.39695 -7.5,8.05008 -4.15445,4.0081 -5.1568,5.27642 -5.92721,7.5 -0.50996,1.47187 -2.46483,5.48863 -4.34414,8.92613 -4.96617,9.08371 -5.04057,10.32732 -0.47865,8 1.87908,-0.95863 3.5,-1.29783 3.5,-0.73241 0,1.58652 -6.08365,6.62883 -10.25,8.49551 -1.375,0.61605 -2.95,1.62628 -3.5,2.24495 l -1,1.12485 1,-0.2951 c 0.55,-0.1623 2.63016,-0.74006 4.62257,-1.28392 7.30065,-1.9928 10.78315,-4.8532 15.34874,-12.60688 1.35922,-2.30835 4.6096,-7.347 7.22305,-11.197 2.61346,-3.85 5.89098,-9.00695 7.28338,-11.4599 2.77307,-4.88521 4.43313,-6.41475 2.78232,-2.56356 -0.54459,1.27047 -2.46533,4.87916 -4.26832,8.01931 -1.80298,3.14016 -3.52335,6.4507 -3.82303,7.35676 -0.29968,0.90607 -1.70647,2.7783 -3.1262,4.16053 -1.41973,1.38222 -3.41635,4.00628 -4.43692,5.83124 -3.05795,5.46813 -2.38532,6.38672 2.72281,3.71846 1.90879,-0.99706 3.94439,-1.81284 4.52356,-1.81284 1.0396,0 1.04088,0.0137 0.10053,1.07727 -0.52387,0.5925 -3.08999,2.09179 -5.70249,3.33177 -2.6125,1.23998 -6.11652,3.11278 -7.78671,4.16179 -1.67019,1.04901 -4.1319,2.39175 -5.47047,2.98386 -1.33857,0.59211 -3.16435,1.85122 -4.05729,2.79801 l -1.62352,1.72143 -3.98936,-0.34799 -3.98935,-0.348 -6.41665,6.44343 c -3.52916,3.54389 -8.2466,8.12756 -10.48321,10.18593 -4.30332,3.96039 -7.18344,7.9149 -7.18344,9.86312 0,1.78667 1.94986,3.36477 5.69894,4.61239 3.39621,1.13018 5.81472,1.17949 11.36443,0.23167 1.49377,-0.25511 1.94565,-0.12085 2.56386,0.76178 0.60136,0.85856 1.43329,1.12738 4.18663,1.35284 6.49506,0.53185 12.08209,-1.30377 19.5775,-6.43218 4.94328,-3.38223 11.75092,-10.16563 14.69945,-14.64712 1.26653,-1.925 3.77156,-6.3125 5.56673,-9.75 2.7194,-5.20729 3.36162,-6.91734 3.84943,-10.25 0.50968,-3.48206 2.02925,-10.72742 2.80667,-13.38226 0.1421,-0.48524 0.49835,-0.73394 0.79168,-0.55265 0.34877,0.21555 0.43426,1.85864 0.24706,4.74818 -0.15745,2.43022 -0.11281,4.52578 0.0992,4.6568 0.72175,0.44606 2.56623,-1.28676 8.25059,-7.75115 5.33416,-6.06614 6.44431,-7.65885 7.77157,-11.14981 0.29607,-0.77873 0.99216,-1.53456 1.54687,-1.67962 0.56565,-0.14792 1.88189,-1.73378 2.99725,-3.61121 2.16527,-3.64469 4.98215,-6.73515 4.98215,-5.46603 0,0.41214 -1.00197,2.19799 -2.2266,3.96855 -7.31319,10.57333 -9.2734,13.69112 -9.2734,14.74966 0,0.8459 -1.70828,2.89053 -5.98671,7.16547 -6.52746,6.52211 -9.32617,10.42577 -12.72522,17.74923 -1.22046,2.62958 -2.79706,5.53889 -3.50355,6.46514 -2.68642,3.52207 -1.34821,3.69439 4.64637,0.59832 5.75982,-2.97483 8.30186,-5.66844 13.52324,-14.32951 3.94089,-6.53704 5.54587,-8.52881 5.54587,-6.88239 0,0.34652 -1.63125,3.22785 -3.625,6.40294 -2.93764,4.67826 -3.625,6.1531 -3.625,7.77796 0,1.74202 -0.19678,2.09509 -1.5,2.69127 -2.0452,0.93563 -11.70492,6.73663 -16.0439,9.63492 -1.94914,1.30197 -6.09333,4.77656 -9.20931,7.72133 -5.59054,5.28336 -9.7474,8.3358 -14.8633,10.91432 -3.20063,1.61319 -3.62819,2.79798 -2.18615,6.05795 1.23857,2.79998 7.30961,8.78896 10.4683,10.32679 4.65776,2.26766 14.07842,-0.32383 20.37036,-5.60358 6.24886,-5.24361 14.0915,-10.97009 15.00757,-10.95812 1.07006,0.014 -0.18722,1.25342 -7.08807,6.9875 -5.82464,4.83984 -6.92465,5.98085 -6.33468,6.57082 0.34572,0.34572 1.13075,0.33673 2.44423,-0.028 3.17199,-0.88074 5.34219,-0.63431 8.55582,0.97157 3.60693,1.8024 4.66721,2.83883 3.59698,3.51604 -1.38085,0.87376 -3.74256,0.48473 -6.77104,-1.11537 l -3.05319,-1.61315 -4.09107,1.61664 c -2.25008,0.88916 -4.30212,1.4862 -4.56008,1.32678 -0.7632,-0.47169 -11.14369,1.24261 -12.36747,2.04244 -1.22336,0.79955 -1.29269,1.11513 -1.14572,5.21523 0.21286,5.93847 -2.6436,16.01582 -4.77117,16.83224 -1.26598,0.4858 -1.38055,-0.18955 -0.5423,-3.19664 0.44288,-1.58874 1.06305,-5.09355 1.37815,-7.78847 0.79522,-6.80113 0.16442,-8.41171 -4.71612,-12.04141 -4.45693,-3.31466 -5.14614,-4.09239 -7.0481,-7.95337 -2.05617,-4.17402 -2.76156,-4.48369 -9.40022,-4.12685 -4.45174,0.2393 -5.692,0.14129 -7.25,-0.57291 -1.52136,-0.69742 -3.40398,-0.86603 -9.87952,-0.88488 l -8,-0.0233 -4,-2.16528 c -3.74354,-2.02644 -4.17632,-2.14509 -6.75,-1.8506 -5.42953,0.62128 -13.33236,2.4092 -17.81378,4.03016 -5.52901,1.99989 -11.62125,3.25754 -25.35588,5.23434 -12.66668,1.8231 -13.31981,1.98538 -29.58034,7.34984 -17.69525,5.83778 -17.5,5.76077 -17.5,6.90185 0,1.74292 6.8875,6.49101 13.5,9.30659 7.99818,3.4056 10.85849,3.69106 15.45088,1.54203 6.5769,-3.07771 13.43496,-8.88714 14.30482,-12.11756 0.46933,-1.74294 2.47083,-3.97883 3.56173,-3.97883 0.6996,0 0.49726,1.96254 -0.39652,3.84605 -0.70502,1.48571 -0.72372,1.81388 -0.125,2.19291 1.05801,0.66978 2.36551,0.56044 6.28443,-0.52555 7.31303,-2.02655 12.14747,-4.59236 21.16966,-11.23553 2.37551,-1.74912 4.5,-2.64605 4.5,-1.89983 0,0.24499 -1.5804,1.52528 -3.51199,2.84508 -3.6011,2.46052 -5.67386,4.57165 -5.21597,5.31253 0.14213,0.22997 1.59771,0.56965 3.23462,0.75485 1.63691,0.18519 3.37381,0.63844 3.85977,1.0072 0.76432,0.57999 0.37744,0.67302 -2.86643,0.68928 -5.33092,0.0267 -8.91354,0.71945 -13.00257,2.51414 -1.95882,0.85973 -6.38871,2.338 -9.84422,3.28505 -6.29201,1.72445 -9.65131,3.20305 -12.42251,5.46777 l -1.4807,1.21009 1.525,0.018 c 1.43149,0.0169 2.725,0.76583 2.725,1.5778 0,0.863 -9.69561,3.15715 -18.88164,4.46771 -2.2724,0.3242 -4.25269,0.78531 -4.40064,1.0247 -0.14795,0.23938 0.74273,1.41852 1.97927,2.62031 2.71153,2.6353 6.22871,4.02823 12.80301,5.07043 6.03193,0.95623 9.83902,0.95569 13.53456,-0.002 1.6109,-0.41742 7.04918,-1.41069 12.08506,-2.20726 10.8999,-1.72412 14.45212,-2.59646 18.65049,-4.58009 4.01928,-1.89902 10.85744,-7.86902 14.39082,-12.56378 2.76964,-3.67999 5.2774,-5.99566 9.22125,-8.51491 4.08617,-2.61015 4.21351,-1.55534 0.26288,2.17747 -6.03353,5.70087 -16.14506,16.68323 -16.14506,17.53551 0,0.52832 0.45939,0.9817 1.125,1.11026 4.4661,0.86264 11.24778,2.66909 14.53411,3.87149 3.19676,1.16964 4.71179,1.43027 8.31394,1.43027 2.78429,0 5.06521,-0.27593 6.19983,-0.75 0.98725,-0.4125 2.3996,-0.75 3.13855,-0.75 1.31063,0 1.32144,0.0244 0.44111,0.99719 -1.20955,1.33654 -3.80178,1.99665 -7.85401,2.00002 -4.17314,0.003 -5.47921,0.58435 -6.86739,3.05428 -1.33455,2.3745 -2.24486,2.46298 -3.32859,0.32351 -1.4291,-2.82127 -2.21037,-3.32099 -8.15051,-5.21329 -5.20826,-1.65916 -6.31374,-1.8415 -10.80204,-1.78174 -6.55456,0.0873 -9.85626,0.93117 -10.25081,2.62003 l -0.29202,1.25 -7.98194,0.33189 c -5.47032,0.22746 -9.38533,0.67116 -12.44192,1.41006 -3.73789,0.9036 -5.66013,1.05529 -11.87263,0.93694 -8.17373,-0.15571 -8.30156,-0.11439 -9.34501,3.02072 -0.31112,0.93479 -0.56567,4.11069 -0.56567,7.05757 0,6.2946 0.10365,6.49234 5.49971,10.4926 5.90355,4.37649 6.92877,4.62348 20.58512,4.95924 6.50916,0.16004 11.98794,0.44476 12.17507,0.63271 C 307.93635,471.77337 305.74692,472 293.15466,472 h -13.28633 l 0.36481,2.125 c 0.80358,4.68076 0.32615,6.50383 -1.21646,4.6451 z M 253.5,436.25 c -0.69676,-0.83955 -1.5,-0.99305 -1.5,-0.28666 0,0.25483 0.39375,0.56623 0.875,0.692 0.48125,0.12576 0.9588,0.25476 1.06122,0.28666 0.10242,0.0319 -0.0939,-0.2795 -0.43622,-0.692 z m -5.21598,-4.69495 c -0.63448,-1.02661 -12.71265,-8.76103 -17.19019,-11.00796 l -4.85188,-2.43479 -10.74598,-0.31957 c -5.91028,-0.17576 -11.98347,-0.42421 -13.49597,-0.5521 -2.70756,-0.22894 -2.72685,-0.22117 -1.25,0.50384 0.825,0.405 7.0125,3.07686 13.75,5.93745 14.91898,6.33427 21.47372,8.12967 30.15451,8.25963 2.1693,0.0325 3.7823,-0.13929 3.62951,-0.3865 z m -32.07206,-22.6427 c 1.23129,-0.59821 2.12403,-1.27321 1.98387,-1.5 C 218.05566,407.18556 216.58049,407 214.91766,407 c -1.66282,0 -4.32891,-0.33831 -5.92463,-0.75181 -3.3291,-0.86265 -3.18707,-0.85811 -11.49303,-0.36742 l -6.25,0.36923 2.99496,1.16286 c 3.66813,1.42425 10.12586,2.47404 15.61666,2.53871 3.27109,0.0385 4.56929,-0.17392 6.35034,-1.03922 z m 15.92256,-1.24032 c -0.33852,-0.13696 -1.01352,-0.1453 -1.5,-0.0185 -0.48649,0.12678 -0.20952,0.23884 0.61548,0.24903 0.825,0.0102 1.22303,-0.0935 0.88452,-0.2305 z M 363.5845,350.46501 c 1.83398,-2.59326 3.80351,-5.95251 4.37675,-7.46501 l 1.04226,-2.75 -2.45478,2.7141 c -2.63259,2.91069 -6.01543,8.24007 -6.94943,10.94824 -0.97566,2.82895 0.3694,1.66544 3.9852,-3.44733 z m 46.8114,-117.60894 c 1.95519,-1.9922 2.10385,-2.3372 2.1006,-4.875 -0.005,-3.78485 -1.45725,-9.47433 -4.66006,-18.25488 -1.49986,-4.1119 -3.89618,-11.2793 -5.32515,-15.92755 -3.70877,-12.0641 -5.67357,-17.52994 -8.22004,-22.86715 -2.94683,-6.17635 -3.67832,-7.17809 -6.75407,-9.24942 -2.78771,-1.87736 -2.94553,-2.51566 -0.90626,-3.66549 1.17788,-0.66414 1.39871,-0.64475 2.33798,0.20527 2.34974,2.12649 1.81838,-0.77866 -1.59524,-8.72185 -1.47848,-3.44028 -2.75223,-5.50826 -4.61956,-7.5 -1.41802,-1.5125 -4.883,-5.86507 -7.69996,-9.67237 -2.81696,-3.8073 -6.82962,-8.7573 -8.91703,-11 C 362.4594,117.37631 356.63224,112 356.02729,112 c -0.16346,0 -0.80521,2.30625 -1.42611,5.125 -1.37374,6.23651 -1.26253,7.01526 2.68215,18.78111 3.72317,11.10512 6.30116,16.44132 10.33915,21.40106 4.23571,5.2026 6.07777,8.10952 9.62738,15.19283 1.58481,3.1625 4.04192,7.55 5.46025,9.75 1.41833,2.2 3.35426,5.2375 4.30208,6.75 1.75415,2.79923 7.3005,10.60277 12.17791,17.13394 5.05294,6.76622 6.06205,9.6017 6.82236,19.16994 0.63215,7.95544 0.93538,9.69612 1.68908,9.69612 0.32464,0 1.5371,-0.96477 2.69436,-2.14393 z m 7.02191,-16.23557 c 0.2743,-1.30377 0.88721,-7.90169 1.36202,-14.66204 l 0.86328,-12.29154 -2.65656,-3.93685 c -3.6112,-5.35157 -6.06259,-7.90243 -8.60074,-8.94973 -1.1747,-0.48471 -2.8444,-1.18162 -3.71045,-1.54871 -0.86605,-0.36708 -2.37269,-0.81714 -3.34809,-1.00012 l -1.77345,-0.3327 1.76923,4.92559 c 0.97307,2.70908 2.74398,8.33955 3.93535,12.51215 4.60535,16.12965 9.7352,28.84445 11.25779,27.90345 0.22158,-0.13695 0.62731,-1.31572 0.90162,-2.6195 z m 7.16345,-5.55142 c 0.65874,-2.92922 -0.0138,-9.69149 -1.26845,-12.75388 -0.59063,-1.44166 -0.66802,-1.09161 -0.98049,4.4348 -0.18658,3.3 -0.67114,8.1375 -1.07681,10.75 -0.40566,2.6125 -0.7348,5.0875 -0.7314,5.5 0.012,1.4577 3.46276,-5.28787 4.05715,-7.93092 z m -6.06941,-33.13435 c -1.88773,-11.27648 -3.3906,-15.56812 -7.24347,-20.68473 -5.56798,-7.39427 -26.57091,-29.16281 -25.56799,-26.5 0.20715,0.55 1.88648,6.175 3.73184,12.5 3.29232,11.28448 3.41107,11.57579 6.33649,15.54414 1.6397,2.22427 4.15542,5.75481 5.59047,7.84563 1.90707,2.77853 3.45438,4.36776 5.75,5.90578 5.12913,3.43641 7.18198,5.27868 9.69328,8.69889 1.30862,1.78225 2.46153,3.15823 2.56202,3.05774 0.10049,-0.10049 -0.2832,-2.96584 -0.85264,-6.36745 z M 404,172.42685 c 0,-0.31523 -0.95625,-1.60898 -2.125,-2.875 -1.16875,-1.26602 -3.475,-4.58899 -5.125,-7.38439 -1.65,-2.7954 -3.05582,-5.02708 -3.12405,-4.95929 -0.15248,0.15151 4.70417,13.24931 5.2994,14.29183 0.36639,0.64172 2.03662,1.18006 4.44965,1.43418 0.34375,0.0362 0.625,-0.1921 0.625,-0.50733 z m 5.50544,-23.21043 c -0.81311,-1.90653 -1.48447,-3.15706 -1.49191,-2.77894 -0.0157,0.79568 2.54856,6.66709 2.80133,6.41433 0.0929,-0.0929 -0.4963,-1.72886 -1.30942,-3.63539 z M 351.02366,119.375 c 0.30921,-1.16875 0.99288,-3.69548 1.51927,-5.61495 0.52639,-1.91947 0.95707,-3.523 0.95707,-3.5634 0,-0.0404 -2.19375,-1.37899 -4.875,-2.97467 -2.68125,-1.59567 -7.67132,-4.77083 -11.08903,-7.0559 -3.41772,-2.285074 -6.29845,-4.07027 -6.40161,-3.967104 -0.10317,0.103166 0.80281,1.731851 2.01328,3.6193 1.21047,1.887444 3.07275,5.119224 4.1384,7.181724 1.4344,2.77617 3.29244,5.14582 7.15494,9.125 2.86956,2.95625 5.39808,5.375 5.61893,5.375 0.22085,0 0.65454,-0.95625 0.96375,-2.125 z m -2.37039,-17.41752 C 346.82904,98.842215 336.69322,89.693742 329.625,84.782783 L 325.5,81.916756 v 3.018096 c 0,1.659952 0.24174,3.548653 0.5372,4.197113 0.35087,0.770074 2.57314,2.260499 6.40698,4.297 3.22838,1.71489 8.3165,4.682419 11.30692,6.594505 2.99042,1.91209 5.52,3.47653 5.62129,3.47653 0.10128,0 -0.22232,-0.69414 -0.71912,-1.54252 z m -25.75559,-18.511264 0.14768,-2.794065 -5.14768,-3.234422 c -7.07395,-4.444749 -13.59023,-8.134081 -17.05736,-9.657397 -2.43356,-1.069207 -2.80173,-1.131692 -2.25,-0.381863 6.46195,8.782073 8.21643,10.759903 10.62286,11.975162 1.39525,0.704611 4.22432,2.323111 6.28682,3.596666 5.64902,3.488161 5.69463,3.512001 6.5,3.397041 0.54336,-0.07756 0.79069,-0.876894 0.89768,-2.901122 z"
       id="path1" />
  </g>
</svg>
