<svg xmlns="http://www.w3.org/2000/svg" xmlns:xlink="http://www.w3.org/1999/xlink" width="500" zoomAndPan="magnify" viewBox="0 0 375 374.999991" height="500" preserveAspectRatio="xMidYMid meet" version="1.0"><path fill="#5c2222" d="M 363.769531 187.179688 C 362.886719 186.992188 355.089844 186.707031 346.445312 186.550781 C 326.285156 186.1875 322.886719 185.222656 319.625 178.925781 C 319.039062 177.792969 318.578125 173.152344 318.371094 166.277344 L 318.039062 155.414062 L 320.632812 149.953125 C 323.402344 144.121094 323.8125 141.722656 322.265625 140.4375 C 321.546875 139.839844 320.773438 139.894531 319.230469 140.640625 C 318.089844 141.191406 315.484375 141.863281 313.445312 142.128906 C 311.023438 142.445312 309.097656 143.203125 307.90625 144.304688 C 306.101562 145.980469 306.082031 146.097656 305.996094 157.996094 C 305.945312 164.597656 305.707031 172.246094 305.460938 174.996094 L 305.011719 179.996094 L 301.082031 180.183594 C 295.332031 180.453125 295.113281 180.164062 294.777344 171.863281 C 294.523438 165.53125 294.664062 164.433594 296 162.269531 C 297.679688 159.558594 297.996094 156.761719 296.617188 156.8125 C 294.773438 156.875 288.914062 158.660156 288.203125 159.375 C 287.792969 159.785156 287.261719 164.492188 287.019531 169.839844 L 286.578125 179.5625 L 284.367188 179.148438 C 283.148438 178.921875 281.84375 178.457031 281.46875 178.109375 C 281.09375 177.765625 280.449219 172.882812 280.039062 167.253906 C 279.316406 157.332031 279.21875 156.902344 276.796875 153.148438 C 274.40625 149.449219 274.144531 149.269531 270.902344 149.0625 L 267.507812 148.84375 L 267.496094 162.992188 C 267.492188 170.773438 267.199219 177.59375 266.851562 178.144531 C 266.339844 178.953125 264.710938 179.0625 258.5625 178.714844 C 254.355469 178.476562 250.78125 178.15625 250.628906 178 C 250.324219 177.695312 250.273438 175.414062 250.363281 166.179688 C 250.414062 161.007812 250.183594 159.832031 248.617188 157.25 C 245.507812 152.128906 243.671875 150.417969 240.167969 149.363281 C 237.222656 148.476562 236.191406 148.484375 232.066406 149.425781 C 227.777344 150.40625 226.542969 150.390625 218.675781 149.273438 C 213.910156 148.59375 209.238281 147.746094 208.292969 147.386719 C 205.378906 146.277344 191.753906 145.832031 186.425781 146.667969 C 183.675781 147.101562 174.242188 149.414062 165.464844 151.8125 C 156.6875 154.207031 149.039062 155.988281 148.46875 155.769531 C 147.027344 155.21875 142.371094 145.171875 142.242188 142.332031 C 142.070312 138.605469 144.839844 137.699219 158.71875 136.929688 C 169.421875 136.332031 170.515625 136.144531 173.101562 134.433594 C 175.949219 132.550781 178.925781 127.644531 178.925781 124.839844 C 178.925781 122.839844 174.632812 119.191406 169.332031 116.683594 C 162.402344 113.40625 161.757812 113.785156 163.257812 120.285156 C 163.789062 122.601562 163.761719 123.578125 163.152344 123.953125 C 162.695312 124.238281 159.453125 124.835938 155.949219 125.285156 C 146.773438 126.460938 142.511719 128.28125 137.132812 133.316406 C 131.105469 138.953125 129.332031 142.617188 129.804688 148.445312 C 130.433594 156.171875 132.34375 161.460938 135.945312 165.46875 C 139.179688 169.066406 139.203125 169.078125 142.808594 168.703125 C 144.792969 168.496094 149.476562 167.625 153.207031 166.761719 C 159.023438 165.421875 162.808594 165.144531 179.699219 164.839844 L 199.40625 164.480469 L 205.058594 167.238281 C 210.128906 169.710938 211.378906 170.019531 217.203125 170.238281 C 221.167969 170.386719 226.0625 170.039062 229.765625 169.347656 C 238.21875 167.761719 237.734375 167.582031 237.355469 172.164062 C 237.171875 174.339844 236.730469 176.371094 236.371094 176.679688 C 236.011719 176.984375 210.484375 177.019531 179.640625 176.753906 C 122.054688 176.257812 118.914062 176.089844 117.882812 173.410156 C 117.472656 172.339844 118.453125 161.210938 119.335938 156.933594 C 119.523438 156.03125 120.539062 154.933594 121.617188 154.476562 C 122.6875 154.023438 124.445312 152.847656 125.527344 151.867188 C 127.363281 150.199219 127.492188 149.707031 127.492188 144.230469 C 127.492188 138.074219 126.730469 136.40625 124.140625 136.90625 C 123.292969 137.066406 122.722656 138.046875 122.433594 139.828125 C 122.195312 141.300781 121.820312 142.6875 121.601562 142.90625 C 121.382812 143.121094 119.859375 142.9375 118.214844 142.496094 C 114.132812 141.398438 111.742188 142.082031 108.753906 145.203125 C 104.292969 149.855469 103.671875 151.824219 103.378906 162.136719 C 103.234375 167.246094 102.773438 172.308594 102.359375 173.390625 C 101.601562 175.347656 101.582031 175.355469 94.722656 175.3125 C 81.574219 175.230469 78.488281 173.960938 79.203125 168.925781 C 79.398438 167.550781 79.921875 163.667969 80.363281 160.296875 C 81.152344 154.300781 81.21875 154.152344 83.488281 153.328125 C 87.800781 151.769531 89.113281 149.59375 89.46875 143.390625 C 89.757812 138.386719 89.636719 137.710938 88.238281 136.449219 C 86.203125 134.613281 84.402344 135.675781 83.914062 138.996094 L 83.554688 141.421875 L 78.554688 141.195312 L 73.554688 140.964844 L 70.554688 144.050781 C 66.179688 148.542969 65.203125 151.46875 64.855469 161.066406 C 64.425781 173.113281 64.28125 173.695312 61.566406 174.566406 C 60.300781 174.972656 55.890625 175.636719 51.765625 176.046875 C 42.355469 176.980469 25.894531 179.507812 22.121094 180.597656 C 16.332031 182.273438 19.136719 182.851562 35.335938 183.316406 C 56.492188 183.921875 60.78125 184.9375 63.972656 190.097656 C 65.449219 192.488281 65.628906 193.804688 65.902344 204.222656 L 66.203125 215.714844 L 64.015625 219.839844 C 59.671875 228.027344 60.351562 231.113281 66.085938 229.261719 C 67.835938 228.695312 70.441406 228.058594 71.875 227.847656 C 73.308594 227.636719 75.316406 226.808594 76.339844 226.003906 L 78.199219 224.542969 L 78.292969 212.628906 C 78.34375 206.074219 78.585938 198.304688 78.828125 195.355469 L 79.269531 190 L 83.679688 190.003906 C 86.105469 190.003906 88.34375 190.257812 88.648438 190.566406 C 88.957031 190.875 89.34375 194.199219 89.507812 197.957031 C 89.769531 203.96875 89.609375 205.207031 88.160156 208.300781 C 86.054688 212.796875 86.699219 213.601562 91.488281 212.445312 C 96.859375 211.148438 96.957031 210.945312 97.339844 200.394531 L 97.675781 191.070312 L 100.097656 191.070312 C 103.539062 191.070312 104.019531 192.882812 104.15625 206.429688 L 104.273438 217.859375 L 101.953125 222.066406 C 98.457031 228.398438 99.058594 232.847656 103.128906 230.765625 C 104.152344 230.242188 106.738281 229.574219 108.878906 229.285156 C 111.75 228.898438 113.296875 228.234375 114.773438 226.757812 L 116.773438 224.753906 L 116.773438 209.042969 C 116.773438 200.398438 116.96875 192.820312 117.207031 192.199219 C 117.546875 191.320312 118.742188 191.070312 122.636719 191.070312 C 130.75 191.070312 150.777344 192.433594 171.425781 194.390625 C 188.519531 196.015625 192.703125 196.171875 208.214844 195.773438 C 217.839844 195.527344 228.339844 195.140625 231.542969 194.910156 L 237.371094 194.496094 L 238.230469 198.351562 C 239.488281 203.957031 239.136719 204.808594 234.996094 206.191406 C 229.859375 207.910156 227.277344 207.761719 222.660156 205.476562 C 211.3125 199.855469 203.9375 198.097656 191.734375 198.09375 C 181.300781 198.089844 175.5625 199.050781 170.324219 201.683594 C 164.59375 204.5625 163.535156 206.429688 163.726562 213.300781 C 163.917969 220.21875 163.113281 220.914062 158.691406 217.613281 C 151.472656 212.230469 150.175781 211.507812 147.835938 211.574219 C 142.910156 211.714844 138.386719 216.1875 136.6875 222.605469 C 135.953125 225.371094 136 226.851562 136.96875 231.535156 C 137.609375 234.621094 138.339844 237.851562 138.597656 238.710938 C 139.058594 240.253906 138.96875 240.273438 131.671875 240.140625 C 124.953125 240.015625 124.0625 240.15625 121.945312 241.667969 C 118.933594 243.8125 117.46875 246.722656 116.972656 251.515625 C 116.601562 255.121094 116.671875 255.363281 118.140625 255.363281 C 119.003906 255.363281 120.890625 254.558594 122.335938 253.578125 C 125.949219 251.121094 128.136719 251.320312 135.269531 254.75 C 143.433594 258.675781 146.4375 259.015625 149.585938 256.367188 C 154.734375 252.035156 155.085938 247.390625 151.027344 237.328125 C 149.4375 233.382812 148.3125 229.691406 148.527344 229.128906 C 149.15625 227.492188 152.808594 228.640625 160.351562 232.84375 C 174.605469 240.78125 175.785156 241.082031 178.089844 237.324219 C 179.75 234.625 181.070312 228.15625 181.070312 222.726562 C 181.070312 218.019531 182.492188 216.375 187.175781 215.671875 C 194.066406 214.640625 202.265625 215.789062 213.214844 219.328125 C 226.195312 223.515625 231.1875 223.804688 240.363281 220.894531 C 243.703125 219.835938 247.292969 218.800781 248.34375 218.59375 C 250.964844 218.074219 254.648438 214.832031 254.648438 213.042969 C 254.648438 212.230469 253.515625 208.0625 252.132812 203.777344 C 250.746094 199.496094 249.78125 195.722656 249.980469 195.398438 C 250.496094 194.566406 255.234375 193.6875 258.222656 193.867188 C 262.289062 194.117188 265.902344 195.289062 266.371094 196.519531 C 266.613281 197.148438 266.488281 200.441406 266.089844 203.832031 C 264.804688 214.804688 264.894531 214.558594 261.734375 215.824219 C 260.171875 216.449219 258.570312 217.5625 258.175781 218.300781 C 257.515625 219.53125 257.746094 219.640625 260.875 219.601562 C 262.753906 219.578125 266.046875 219.007812 268.1875 218.335938 C 271.671875 217.242188 272.328125 216.703125 274.425781 213.207031 C 275.726562 211.042969 277.292969 206.964844 277.9375 204.070312 C 278.675781 200.75 279.777344 198.042969 280.957031 196.640625 L 282.8125 194.433594 L 291.851562 194.867188 C 300.902344 195.300781 304.238281 196.09375 304.964844 197.988281 C 305.179688 198.546875 304.878906 202.601562 304.296875 207 C 303.714844 211.402344 303.234375 215.179688 303.234375 215.394531 C 303.230469 215.609375 302.15625 216.171875 300.847656 216.644531 C 296.699219 218.144531 295.113281 220.519531 294.78125 225.722656 C 294.417969 231.449219 294.957031 233.707031 296.832031 234.300781 C 298.8125 234.929688 300.242188 233.582031 300.507812 230.84375 C 300.703125 228.804688 300.945312 228.589844 302.871094 228.734375 C 304.046875 228.820312 306.171875 228.976562 307.589844 229.074219 C 311.128906 229.328125 314.734375 226.449219 317.207031 221.394531 C 318.921875 217.882812 319.183594 216.402344 319.441406 208.710938 C 319.796875 198.1875 320.007812 197.03125 321.742188 196.101562 C 322.488281 195.703125 326.261719 195.046875 330.128906 194.644531 C 341.515625 193.453125 362.773438 190.265625 364.128906 189.542969 C 365.847656 188.625 365.691406 187.59375 363.769531 187.179688 " fill-opacity="1" fill-rule="evenodd"/></svg>